<svg width="512" height="512" viewBox="0 0 512 512" fill="none" xmlns="http://www.w3.org/2000/svg">
<rect width="512" height="512" fill="#34C7A2"/>
<path d="M122.223 156.204H161.163V347H122.223V156.204ZM199.005 250.442C199.005 236.852 201.568 224.197 206.695 212.479C211.822 200.678 219.228 190.465 228.912 181.839C238.678 173.131 250.559 166.295 264.557 161.331C278.635 156.367 294.545 153.885 312.286 153.885C327.83 153.885 342.071 155.472 355.011 158.646C368.032 161.738 380.117 166.499 391.266 172.928L373.443 202.225C370.107 200.027 366.241 198.074 361.847 196.365C357.534 194.656 352.895 193.232 347.931 192.093C343.048 190.872 337.962 189.936 332.672 189.285C327.464 188.634 322.296 188.309 317.169 188.309C304.799 188.309 293.772 189.855 284.088 192.947C274.404 195.958 266.225 200.231 259.552 205.765C252.96 211.217 247.914 217.768 244.415 225.418C240.997 232.986 239.288 241.328 239.288 250.442C239.288 259.882 241.078 268.549 244.659 276.443C248.24 284.337 253.408 291.173 260.162 296.951C266.998 302.648 275.299 307.124 285.064 310.379C294.911 313.553 306.02 315.14 318.39 315.14C324.005 315.14 329.579 314.733 335.113 313.919C340.647 313.105 345.978 312.007 351.104 310.623C356.313 309.158 361.318 307.449 366.119 305.496C370.921 303.462 375.396 301.264 379.547 298.904L397.369 328.201C386.952 334.874 374.908 340.123 361.236 343.948C347.564 347.692 333.038 349.563 317.657 349.563C298.045 349.563 280.833 347.041 266.021 341.995C251.21 336.868 238.84 329.869 228.912 320.999C218.984 312.047 211.497 301.549 206.451 289.505C201.487 277.379 199.005 264.358 199.005 250.442Z" fill="white"/>
</svg>
